<svg width="120" height="32" viewBox="0 0 120 32" fill="none" xmlns="http://www.w3.org/2000/svg">
<g id="vendor-24-google-pixel 1" style="mix-blend-mode:luminosity" opacity="0.5" clip-path="url(#clip0_319_16090)">
<g id="&#208;&#161;&#208;&#187;&#208;&#190;&#208;&#185; 2">
<g id="Layer 1">
<path id="Vector" d="M42.7161 31.3083H38.7325V0.341415H49.2825C51.909 0.341415 54.1795 1.21401 56.094 2.9592C58.0084 4.70439 58.9656 6.90193 58.9656 9.55181C58.9656 12.2046 58.0084 14.4022 56.094 16.1444C54.1795 17.8867 51.909 18.7593 49.2825 18.7622H42.7074L42.7161 31.3083ZM42.7161 14.9625H49.3788C51.051 14.9625 52.3905 14.3992 53.3974 13.2727C54.4042 12.1521 54.912 10.9089 54.912 9.55181C54.912 8.19477 54.4042 6.96029 53.3974 5.83088C52.3905 4.70147 51.0536 4.14114 49.3788 4.14114H42.7161V14.9625ZM66.7752 4.79778C66.248 5.32471 65.5332 5.62072 64.7878 5.62072C64.0424 5.62072 63.3276 5.32471 62.8004 4.79778C62.5342 4.54071 62.3237 4.2316 62.1822 3.88968C62.0406 3.54777 61.9709 3.18037 61.9774 2.81036C61.97 2.44024 62.0393 2.07259 62.181 1.73055C62.3226 1.38852 62.5335 1.0795 62.8004 0.822948C63.3276 0.29601 64.0424 0 64.7878 0C65.5332 0 66.248 0.29601 66.7752 0.822948C67.0419 1.07982 67.2528 1.38884 67.3948 1.73075C67.5368 2.07267 67.607 2.44017 67.6008 2.81036C67.608 3.18055 67.5386 3.54822 67.3968 3.89025C67.255 4.23228 67.044 4.54127 66.777 4.79778H66.7752ZM66.7752 31.3083H62.8004V10.1209H66.7752V31.3083ZM89.6357 31.3083H84.9693L79.7337 23.4812L74.5857 31.3083H69.9192L77.3961 20.5395L70.0855 10.1209H74.5857L79.8212 17.5978L84.7942 10.1209H89.4606L82.0626 20.5395L89.6357 31.3083ZM102.032 32C98.8289 32 96.226 30.9348 94.2234 28.8043C92.2185 26.6681 91.2195 23.9803 91.2195 20.7146C91.2195 17.6328 92.1917 14.98 94.1359 12.7562C96.0801 10.5324 98.5663 9.4234 101.594 9.42924C104.739 9.42924 107.254 10.4536 109.141 12.5023C111.028 14.551 111.971 17.2884 111.969 20.7146L111.925 21.45H95.2031C95.3178 23.5863 96.0349 25.2673 97.3403 26.5105C98.6456 27.7537 100.186 28.3666 101.945 28.3666C104.799 28.3666 106.731 27.1555 107.74 24.7332L111.286 26.2041C110.595 27.85 109.456 29.2275 107.872 30.3365C106.287 31.4396 104.344 32 102.032 32ZM107.74 18.1581C107.653 16.9499 107.101 15.7942 106.077 14.6998C105.053 13.6054 103.529 13.0539 101.516 13.0539C100.045 13.0539 98.7665 13.5179 97.6905 14.4372C96.6145 15.3565 95.8685 16.5997 95.4658 18.1581H107.74ZM119.551 31.3083H115.579V0.341415H119.554L119.551 31.3083Z" fill="black"/>
<path id="Vector_2" d="M31.6592 16.3723C31.6545 15.2924 31.5605 14.2148 31.3782 13.1504H16.3632V19.2877H24.9695C24.7974 20.2685 24.4248 21.2031 23.875 22.0332C23.3251 22.8633 22.6098 23.5709 21.7738 24.1118L26.9043 28.1042C29.9249 25.285 31.6592 21.1876 31.6592 16.3723Z" fill="#4280EF"/>
<path id="Vector_3" d="M16.3632 31.9126C20.6628 31.9126 24.2691 30.4943 26.9131 28.0604L21.7826 24.103C20.3643 25.0749 18.5257 25.6264 16.3719 25.6264C12.2133 25.6264 8.70246 22.816 7.42421 19.0688L2.13611 23.1312C3.45956 25.7706 5.49115 27.9898 8.00367 29.5406C10.5162 31.0914 13.4106 31.9127 16.3632 31.9126Z" fill="#34A353"/>
<path id="Vector_4" d="M7.41629 19.0425C6.75966 17.0614 6.75966 14.9213 7.41629 12.9402L2.13607 8.84277C1.02676 11.0609 0.449219 13.5069 0.449219 15.987C0.449219 18.467 1.02676 20.913 2.13607 23.1311L7.41629 19.0425Z" fill="#F6B704"/>
<path id="Vector_5" d="M16.3632 6.38226C18.6318 6.35042 20.8227 7.20842 22.4664 8.77241L27.0103 4.19348C24.1259 1.4963 20.312 0.0160327 16.3632 0.0610563C13.4106 0.0609928 10.5162 0.882289 8.00367 2.4331C5.49115 3.98391 3.45956 6.20308 2.13611 8.84245L7.4067 12.9399C8.69458 9.14888 12.1958 6.38226 16.3632 6.38226Z" fill="#E54335"/>
</g>
</g>
</g>
<defs>
<clipPath id="clip0_319_16090">
<rect width="119.102" height="32" fill="white" transform="translate(0.448975)"/>
</clipPath>
</defs>
</svg>
