<svg width="136" height="48" viewBox="0 0 136 48" fill="none" xmlns="http://www.w3.org/2000/svg">
<g id="vendor-09-oppo 1" style="mix-blend-mode:luminosity" opacity="0.5" clip-path="url(#clip0_319_16137)">
<g id="&#208;&#161;&#208;&#187;&#208;&#190;&#208;&#185; 2">
<g id="svg4">
<path id="path1460" d="M34.9218 28.5564V13.1211H39.7327V14.1414C39.7327 14.7027 39.7408 15.1617 39.7515 15.1617C39.7623 15.1617 40.0652 14.9773 40.4246 14.7579C44.6889 12.0833 50.8794 11.2797 56.432 12.6729C61.4339 13.9288 65.0602 16.9116 66.3498 20.8287C67.1037 23.1247 67.0634 25.6076 66.2353 27.878C65.2056 30.6321 63.0923 32.8477 60.0434 34.3634C57.3738 35.6969 54.3276 36.3636 50.905 36.3636C48.0783 36.3636 45.4319 35.8925 43.1073 34.9704C42.1252 34.5755 41.1794 34.0958 40.2805 33.5369L39.7327 33.1694V43.9998H34.9218V28.5564ZM53.2391 32.2487C55.9474 31.8651 58.0486 31.0049 59.6248 29.6373C60.8276 28.5838 61.6494 27.163 61.9629 25.5951C62.0975 24.9517 62.0975 23.4306 61.9629 22.7886C61.5837 20.9231 60.5024 19.2746 58.9424 18.1837C58.0762 17.6131 57.1454 17.1472 56.1695 16.7959C53.8246 16.0071 50.9817 15.7729 48.3771 16.1551C43.8557 16.8188 40.8001 19.0613 39.9804 22.3174C39.6183 23.7518 39.681 25.2604 40.1607 26.6598C41.2483 29.7383 44.4439 31.787 48.9748 32.2985C49.8847 32.4008 52.3816 32.3739 53.2404 32.2527L53.2391 32.2487ZM69.2021 28.5564V13.1211H74.0183V14.1414C74.0183 14.7027 74.0277 15.1617 74.0412 15.1617C74.0546 15.1617 74.3185 14.9962 74.6294 14.7929C75.5993 14.1998 76.6206 13.6953 77.6809 13.2853C81.6141 11.8343 86.4156 11.596 90.6139 12.6554C97.4641 14.3743 101.498 19.0869 101.113 24.9234C100.822 29.3775 97.8584 33.0375 92.9817 34.9597C91.392 35.5869 89.7619 35.9827 87.7212 36.2371C86.6444 36.3717 83.7436 36.3717 82.6196 36.2371C79.4375 35.8575 76.6445 34.9126 74.4679 33.479L74.0102 33.1788V43.9998H69.2021V28.5564ZM87.6432 32.2258C91.3933 31.6658 94.037 30.1542 95.4261 27.7838C96.2337 26.4014 96.5353 24.564 96.2337 22.8585C95.6078 19.309 92.4984 16.8551 87.7199 16.1551C84.5701 15.6921 81.0151 16.1551 78.5976 17.3356C76.1298 18.5435 74.6433 20.3486 74.1381 22.7509C74.0035 23.3822 74.0035 25.0042 74.1381 25.6234C74.4532 27.2154 75.3 28.653 76.5395 29.7006C78.2355 31.1261 80.4431 31.9754 83.3075 32.3039C84.2497 32.4129 86.6942 32.3712 87.6364 32.2298L87.6432 32.2258ZM15.0324 36.3259C12.4749 36.0998 10.2983 35.5964 8.44474 34.8049C4.22752 32.9985 1.565 29.9644 0.842167 26.1335C0.693029 25.081 0.659177 24.0153 0.741212 22.9555C1.26349 18.356 4.65153 14.7122 10.0089 12.9946C12.8585 12.0793 16.3677 11.7831 19.5175 12.1869C25.288 12.9273 29.6533 15.6033 31.5728 19.5755C33.1343 22.806 32.9364 26.7393 31.0586 29.7598C30.212 31.1207 28.8201 32.526 27.3839 33.4642C25.1521 34.9193 22.4855 35.8252 19.2456 36.229C18.5968 36.3098 15.6341 36.3757 15.0324 36.3232V36.3259ZM18.4487 32.3039C20.9605 32.0347 23.0738 31.3199 24.6635 30.1946C25.9624 29.2739 26.9908 27.9184 27.4525 26.5171C27.7217 25.696 27.7769 25.3057 27.7769 24.1898C27.7769 23.0739 27.7231 22.6903 27.4552 21.8692C26.5749 19.1771 23.9972 17.158 20.3978 16.3705C17.2413 15.6759 13.5598 15.9169 10.8313 16.9978C8.86471 17.7772 7.31135 19.0398 6.40007 20.5998C5.43225 22.2582 5.21149 24.5169 5.82934 26.4633C6.49564 28.5605 8.25225 30.3157 10.6631 31.3011C12.1213 31.8699 13.6551 32.2218 15.2154 32.3456C16.2922 32.392 17.3708 32.3781 18.446 32.3039H18.4487ZM117.772 36.3273L116.987 36.2492C114.329 35.9975 111.534 35.1589 109.486 33.9959C106.717 32.425 104.788 30.1933 103.908 27.5348C103.31 25.7036 103.211 23.746 103.621 21.8638C104.244 19.0559 105.954 16.672 108.601 14.9087C112.101 12.584 117.247 11.5503 122.215 12.1762C126.343 12.6971 129.743 14.206 132.109 16.5684C133.911 18.3681 134.947 20.472 135.247 22.9528C135.323 23.8278 135.315 24.7081 135.223 25.5816C134.572 30.5015 130.673 34.2611 124.702 35.7256C122.891 36.1698 121.754 36.303 119.624 36.3259C118.704 36.3353 117.874 36.334 117.767 36.3259L117.772 36.3273ZM120.938 32.3254C124.117 32.0333 126.709 30.9794 128.372 29.3197C129.499 28.1917 130.153 26.9506 130.41 25.4497C130.517 24.6037 130.517 23.7476 130.41 22.9016C129.83 19.449 126.787 16.9466 122.276 16.2144C121.308 16.0476 120.328 15.9696 119.346 15.9815C114.289 15.9815 110.363 17.8875 108.854 21.079C108.4 22.051 108.175 23.1144 108.198 24.1871C108.198 25.7391 108.56 26.9694 109.375 28.197C110.875 30.4477 113.716 31.8866 117.479 32.2972C118.631 32.3847 119.787 32.3941 120.941 32.3254H120.938Z" fill="#006B33"/>
</g>
</g>
</g>
<defs>
<clipPath id="clip0_319_16137">
<rect width="134.606" height="48" fill="white" transform="translate(0.696777)"/>
</clipPath>
</defs>
</svg>
