<svg width="130" height="32" viewBox="0 0 130 32" fill="none" xmlns="http://www.w3.org/2000/svg">
<g id="vendor-19-iphone 1" style="mix-blend-mode:luminosity" opacity="0.5" clip-path="url(#clip0_319_16099)">
<g id="&#208;&#161;&#208;&#187;&#208;&#190;&#208;&#185; 2">
<g id="&#208;&#161;&#208;&#187;&#208;&#190;&#208;&#185; 1">
<g id="N000000ff">
<path id="Vector" d="M1.78927 0.403038C3.43367 -0.624711 6.09759 0.378372 6.09759 2.46676C6.12161 2.96103 6.01438 3.45285 5.78679 3.89226C5.55921 4.33168 5.21938 4.70303 4.80182 4.9686C4.38426 5.23416 3.90386 5.38448 3.4094 5.40429C2.91494 5.42409 2.42405 5.31267 1.98659 5.08135C0.227088 4.25915 0.0215381 1.36501 1.78927 0.403038Z" fill="black"/>
<path id="Vector_2" d="M11.1212 0.106806C16.3668 0.369909 21.744 -0.501622 26.8745 0.674123C34.4059 3.02561 35.6063 14.4706 29.3411 18.8776C25.5015 21.7224 20.4614 20.7276 16.0133 20.892C16.0133 24.4932 16.0133 28.0917 16.0133 31.6875H11.0801C11.0801 21.1633 11.0801 10.6364 11.0801 0.106806M16.0133 4.2178C16.0133 8.39458 16.0133 12.5713 16.0133 16.7481C19.0061 16.6741 22.1469 17.1263 25.0575 16.0739C29.6207 14.1664 29.4151 6.20752 24.6381 4.71934C21.8591 3.89714 18.9074 4.25891 16.0544 4.19314L16.0133 4.2178Z" fill="black"/>
<path id="Vector_3" d="M36.741 0.106934H41.4686C41.4686 4.21793 41.5262 8.32893 41.3946 12.4399C43.779 8.41115 49.37 7.3094 53.3001 9.61978C55.6269 11.0011 56.7533 13.7308 56.8109 16.3618C57.0082 21.4759 56.8109 26.59 56.8931 31.7041H52.0174C51.8694 26.516 52.3217 21.295 51.8037 16.1316C50.9157 11.0997 42.669 11.6424 41.7975 16.4358C41.1069 21.4841 41.6659 26.6229 41.4851 31.7041H36.741C36.7081 21.1689 36.7081 10.6366 36.741 0.106934Z" fill="black"/>
<path id="Vector_4" d="M110.081 13.2377C113.501 7.04657 123.738 6.66013 127.512 12.6951C129.255 15.2439 129.329 18.4505 129.436 21.4022C123.96 21.4022 118.484 21.4022 112.992 21.4022C113.395 23.2275 113.584 25.3487 115.154 26.6149C115.869 27.2067 116.705 27.6359 117.603 27.8728C118.501 28.1096 119.439 28.1485 120.353 27.9866C121.268 27.8247 122.136 27.4659 122.898 26.9352C123.66 26.4045 124.297 25.7145 124.766 24.913C126.27 24.913 127.783 24.913 129.288 24.913C127.257 33.2007 114.488 34.3847 110.204 27.4782C108.974 25.3088 108.315 22.8619 108.291 20.3678C108.266 17.8737 108.877 15.4144 110.065 13.2213M113.016 18.0229C116.914 18.0613 120.811 18.0613 124.708 18.0229C124.346 15.0877 122.241 12.0455 118.953 12.2675C115.672 12.1031 113.575 15.1123 113.033 18.0394L113.016 18.0229Z" fill="black"/>
<path id="Vector_5" d="M0.942383 31.6876C0.942383 24.0247 0.942383 16.37 0.942383 8.71533H5.71114C5.71114 16.3892 5.71114 24.0466 5.71114 31.6876H0.942383Z" fill="black"/>
<path id="Vector_6" d="M66.5868 9.20045C71.1007 7.48206 77.0287 8.46047 79.8406 12.6619C81.1543 14.8094 81.8888 17.2608 81.9723 19.7768C82.0559 22.2929 81.4858 24.7876 80.3175 27.0175C76.5025 33.9487 64.6135 33.5951 61.4069 26.2858C58.7512 20.4728 60.0585 11.741 66.6279 9.20045M69.1767 12.6455C64.6382 14.2899 64.3504 20.407 65.7399 24.3371C66.9897 28.5468 73.4193 29.3197 75.7214 25.6444C76.5612 24.1024 77.0371 22.3886 77.1126 20.6343C77.1882 18.88 76.8613 17.1317 76.1572 15.5232C75.0061 12.8757 71.7667 11.7822 69.1356 12.6455H69.1767Z" fill="black"/>
<path id="Vector_7" d="M85.2508 8.71561H89.8469C89.8469 9.96535 89.7811 11.1822 89.74 12.4648C92.0504 8.54295 97.3371 7.33431 101.3 9.37337C103.783 10.6889 104.984 13.5748 104.984 16.3045C105.115 21.4268 104.984 26.5573 104.984 31.6879H100.215C100.1 26.5656 100.445 21.4268 100.059 16.321C99.7133 12.21 93.8099 11.3878 91.3926 14.1997C90.036 15.6467 89.9784 17.7434 89.9291 19.6098C89.9291 23.6303 89.9291 27.6591 89.9291 31.6879H85.2508C85.2234 24.0359 85.2234 16.3785 85.2508 8.71561Z" fill="black"/>
</g>
</g>
</g>
</g>
<defs>
<clipPath id="clip0_319_16099">
<rect width="128.872" height="32" fill="white" transform="translate(0.564209)"/>
</clipPath>
</defs>
</svg>
