<svg width="124" height="32" viewBox="0 0 124 32" fill="none" xmlns="http://www.w3.org/2000/svg">
<g id="vendor-11-vivo 1" style="mix-blend-mode:luminosity" opacity="0.5" clip-path="url(#clip0_319_16142)">
<g id="&#208;&#161;&#208;&#187;&#208;&#190;&#208;&#185; 2">
<g id="svg894">
<g id="layer1">
<g id="g44">
<g id="g18">
<path id="path16" d="M110.949 26.6664H100.436C94.5259 26.6664 94.0005 21.795 94.0005 20.3077C94.0005 18.8204 94.5259 13.9486 100.436 13.9486H110.949C116.86 13.9486 117.385 18.82 117.385 20.3077C117.385 21.7954 116.86 26.6664 110.949 26.6664ZM111.178 8.61523H100.619C89.6444 8.61523 88.6682 17.5712 88.6682 20.3077C88.6682 23.0442 89.6433 31.9998 100.619 31.9998H111.179C122.154 31.9998 123.13 23.0442 123.13 20.3077C123.13 17.5712 122.154 8.61523 111.178 8.61523Z" fill="#415FFF"/>
</g>
<g id="g24">
<path id="path22" d="M86.5561 9.43561H83.1326C81.6666 9.43561 81.3646 9.68227 80.7994 10.51C80.2342 11.3378 70.4411 26.0845 70.4411 26.0845C70.1283 26.5377 69.7966 26.7213 69.3849 26.7213C68.9731 26.7213 68.6418 26.5377 68.329 26.0845C68.329 26.0845 58.5364 11.3378 57.9707 10.51C57.4051 9.68227 57.1036 9.43561 55.6371 9.43561H52.2144C51.4272 9.43561 51.0657 10.0434 51.5614 10.7853L63.257 28.3026C65.0718 30.9358 66.4033 31.9998 69.386 31.9998C72.3688 31.9998 73.7003 30.9358 75.5155 28.3026L87.2091 10.7865C87.7048 10.0445 87.3448 9.43677 86.5561 9.43677M41.4873 10.8673C41.4873 9.84233 41.8874 9.43677 42.8969 9.43677H45.4099C46.419 9.43677 46.8191 9.84311 46.8191 10.8673V30.5689C46.8191 31.5939 46.419 31.9994 45.4099 31.9994H42.8969C41.8878 31.9994 41.4873 31.5935 41.4873 30.5689V10.8665M41.277 4.62337C40.4651 3.81148 40.4651 3.16466 41.277 2.35045L43.0167 0.610663C43.8306 -0.203554 44.4762 -0.203554 45.2897 0.610663L47.0295 2.35045C47.8414 3.16505 47.8414 3.81032 47.0295 4.62415L45.2897 6.36393C44.4778 7.17815 43.8306 7.17815 43.0171 6.36393L41.2773 4.62415M36.0758 9.43561H32.6561C31.1913 9.43561 30.8893 9.68266 30.3248 10.51C29.7604 11.3374 19.9774 26.0842 19.9774 26.0842C19.6654 26.5373 19.3344 26.7209 18.9231 26.7209C18.5117 26.7209 18.18 26.5373 17.8676 26.0842C17.8676 26.0842 8.08618 11.3374 7.52094 10.5096C6.95571 9.68189 6.65453 9.43561 5.19002 9.43561H1.77C0.891216 9.43561 0.622516 10.0434 1.11777 10.7865C1.61303 11.5295 12.8002 28.3022 12.8002 28.3022C14.6131 30.9358 15.9442 31.9998 18.9231 31.9998C21.902 31.9998 23.2327 30.9358 25.0452 28.3022L36.7284 10.7865C37.2229 10.0445 36.955 9.43677 36.0758 9.43677" fill="#415FFF"/>
</g>
</g>
</g>
</g>
</g>
</g>
<defs>
<clipPath id="clip0_319_16142">
<rect width="122.257" height="32" fill="white" transform="translate(0.87146)"/>
</clipPath>
</defs>
</svg>
