<svg width="136" height="32" viewBox="0 0 136 32" fill="none" xmlns="http://www.w3.org/2000/svg">
<g id="vendor-04-one-plus 1" style="mix-blend-mode:luminosity" opacity="0.5" clip-path="url(#clip0_319_16111)">
<g id="&#208;&#161;&#208;&#187;&#208;&#190;&#208;&#185; 2">
<g id="&#208;&#161;&#208;&#187;&#208;&#190;&#208;&#185; 1">
<path id="Vector" d="M26.0571 0.0112305H28.2564V4.52207C29.76 4.54451 31.2412 4.54451 32.7448 4.52207C32.7933 5.29958 32.7858 6.07959 32.7224 6.85603C31.2412 6.7887 29.7376 6.81115 28.2564 6.83359C28.2564 8.3372 28.2789 9.86325 28.2564 11.3893C27.5158 11.3669 26.7753 11.3669 26.0347 11.3669V6.83359C24.4862 6.7887 22.9377 6.81115 21.3892 6.81115V4.52207C22.9377 4.54451 24.4862 4.54451 26.0347 4.52207C26.0347 3.01845 26.0347 1.51484 26.0571 0.0112305ZM0.765015 4.52207C6.33062 4.52207 11.8962 4.56695 17.4843 4.52207C17.5292 5.26265 17.4843 6.02568 17.5292 6.7887C12.7041 6.83359 7.87912 6.81115 3.0541 6.81115V29.6795C10.7068 29.6795 18.382 29.702 26.0347 29.6571V15.2269H28.2564C28.2564 20.8149 28.3013 26.403 28.2564 31.991C19.0777 31.9461 9.92134 31.9686 0.765015 31.9686V4.52207ZM36.8741 4.54451C69.6619 4.54451 102.45 4.54451 135.237 4.54451V31.9686C102.427 31.9686 69.6245 31.9761 36.8293 31.991C36.6048 31.6095 36.717 31.1382 36.6946 30.7343C36.6946 22.0717 36.6722 13.4091 36.6946 4.74649C36.7599 4.68424 36.82 4.61668 36.8741 4.54451ZM48.5888 11.5913C47.032 11.9553 45.665 12.8826 44.7513 14.1946C42.8886 16.9774 43.2028 21.1067 45.6714 23.4182C48.4542 25.9541 53.3914 25.7297 55.7703 22.7449C57.9696 19.9621 57.7452 15.4962 55.0746 13.0725C53.3465 11.524 50.833 11.0751 48.5888 11.5913ZM59.6303 11.3893C59.6079 15.9675 59.6079 20.5681 59.6079 25.1462C60.3709 25.1462 61.1339 25.1462 61.8969 25.1238C61.8521 21.9819 61.9643 18.8176 61.8521 15.6757L62.0989 15.8104C64.2982 18.7503 66.52 21.6677 68.7193 24.6076C69.213 25.4155 70.3127 25.1238 71.0982 25.0789C71.0533 20.5456 71.0757 15.9899 71.0757 11.4566C70.3127 11.4342 69.5272 11.3444 68.7642 11.4566C68.8091 14.5985 68.7193 17.7404 68.8091 20.8598C66.4078 17.8975 64.1187 14.8229 61.7623 11.8157C61.291 11.1424 60.326 11.5464 59.6303 11.3893ZM74.1054 11.4117C74.1278 15.9899 74.1054 20.5456 74.1054 25.1013C76.9106 25.1238 79.7383 25.1462 82.5436 25.0789C82.5211 24.4281 82.5211 23.7773 82.5211 23.1265C80.5013 23.1265 78.4816 23.0816 76.4618 23.1265C76.372 21.744 76.372 20.3572 76.4618 18.9747C77.9654 19.0196 79.469 18.9971 80.9726 18.9971C80.9726 18.3688 80.9726 17.7179 80.9502 17.0671C79.4466 17.112 77.9429 17.0447 76.4393 17.112C76.3271 15.9001 76.4618 14.6658 76.372 13.454C78.4142 13.2969 80.4789 13.4315 82.5436 13.3866C82.5211 12.7358 82.5211 12.0626 82.5436 11.4117C79.7383 11.3669 76.9106 11.3669 74.1054 11.4117ZM85.5508 11.4342C85.5732 15.9675 85.5732 20.5157 85.5508 25.0789C86.1792 25.0789 86.7851 25.0789 87.391 25.1013V19.7602C88.8497 19.7153 90.3758 19.9173 91.7896 19.4684C92.9117 19.1093 93.9441 18.3239 94.3929 17.2242C95.0213 15.743 94.7969 13.8579 93.6523 12.6909C92.7098 11.7484 91.2959 11.4342 89.9943 11.3893C88.5131 11.3893 87.0319 11.3444 85.5508 11.4342ZM97.0859 25.1462C99.6219 25.1013 102.135 25.1462 104.671 25.1462C104.671 24.6076 104.694 24.0915 104.649 23.5753C102.719 23.6202 100.811 23.5753 98.8813 23.5977C98.8813 19.5357 98.8589 15.4962 98.9037 11.4566C98.3008 11.382 97.6933 11.352 97.0859 11.3669C97.0186 15.9675 96.9962 20.5681 97.0859 25.1462ZM106.197 11.4117C106.22 14.0375 106.197 16.6407 106.197 19.2664C106.153 20.5007 106.354 21.8024 107.05 22.8572C108.554 25.3033 112.1 25.8419 114.456 24.4281C116.005 23.508 116.857 21.7126 116.88 19.9397C116.902 17.0896 116.88 14.2394 116.88 11.3893C116.274 11.3893 115.668 11.3669 115.062 11.3669V19.7153C115.084 20.8149 114.725 21.9819 113.895 22.7225C113.216 23.2977 112.35 23.604 111.461 23.5833C110.572 23.5626 109.721 23.2164 109.07 22.6103C108.329 21.8697 108.015 20.77 108.015 19.7153C108.015 16.9325 108.038 14.1497 108.015 11.3893C107.409 11.3631 106.802 11.3706 106.197 11.4117ZM121.839 12.0401C120.067 13.0725 119.573 15.743 120.897 17.314C121.75 18.3014 123.096 18.5932 124.308 18.9971C125.161 19.2664 126.148 19.6031 126.507 20.5007C126.889 21.578 126.35 22.9245 125.296 23.3733C124.743 23.6001 124.145 23.6959 123.55 23.6531C122.954 23.6102 122.376 23.43 121.862 23.1265C121.391 22.902 121.032 22.4308 120.493 22.2961C119.999 22.4532 119.82 23.0367 119.595 23.4855C121.301 25.1687 124.129 25.7522 126.305 24.5852C128.258 23.5529 129.043 20.6354 127.652 18.8625C126.328 17.3589 124.084 17.4486 122.513 16.3265C121.458 15.586 121.727 13.8355 122.804 13.252C124.106 12.5338 125.744 12.9154 126.866 13.7906C127.562 14.2394 127.787 13.1622 128.056 12.7358C126.418 11.2322 123.747 10.8731 121.839 12.0401Z" fill="#EB0028" stroke="#EB0028" stroke-width="0.09"/>
<path id="Vector_2" d="M9.92139 11.4453C11.9636 11.4004 13.9834 11.4453 16.0256 11.4229C16.0256 15.2155 16.048 19.0082 16.0256 22.8009C17.2599 22.9356 18.5167 22.8458 19.751 22.8683V25.1125C16.4744 25.09 13.1979 25.1125 9.92139 25.09C9.94383 24.3719 9.94383 23.6313 9.92139 22.8907C11.1781 22.8458 12.4573 22.8907 13.7365 22.8683C13.759 19.7937 13.7365 16.7416 13.7365 13.667C12.4573 13.667 11.2006 13.6895 9.92139 13.6446C9.95505 12.9152 9.95505 12.1747 9.92139 11.4453Z" fill="#EB0028" stroke="#EB0028" stroke-width="0.09"/>
<path id="Vector_3" d="M48.5888 11.5911C50.833 11.075 53.3465 11.5238 55.0745 13.0723C57.7451 15.496 57.9695 19.962 55.7702 22.7448C53.3914 25.7296 48.4541 25.954 45.6713 23.4181C43.2027 21.1065 42.8885 16.9772 44.7512 14.1944C45.665 12.8824 47.032 11.9551 48.5888 11.5911ZM48.7908 13.7904C48.158 14.03 47.5975 14.4283 47.1632 14.9471C46.7289 15.4659 46.4354 16.0877 46.3109 16.7528C45.9968 18.2788 46.0865 19.962 46.9393 21.2861C48.4654 23.6425 52.5498 23.62 53.9861 21.1739C54.6369 20.0742 54.7716 18.7501 54.6369 17.4934C54.5247 16.2815 54.0085 15.0248 52.9986 14.3066C51.798 13.4314 50.1597 13.3416 48.7908 13.7904ZM59.6302 11.3892C60.3259 11.5463 61.291 11.1423 61.7622 11.8156C64.1186 14.8228 66.4077 17.8973 68.809 20.8597C68.7192 17.7402 68.809 14.5984 68.7641 11.4565C69.5272 11.3443 70.3126 11.434 71.0757 11.4565C71.0757 15.9898 71.0532 20.5455 71.0981 25.0788C70.3126 25.1236 69.213 25.4154 68.7192 24.6075C66.5199 21.6676 64.2982 18.7501 62.0989 15.8102L61.852 15.6756C61.9642 18.8174 61.852 21.9818 61.8969 25.1236C61.1339 25.1461 60.3708 25.1461 59.6078 25.1461C59.6078 20.5679 59.6078 15.9673 59.6302 11.3892ZM74.1053 11.4116C76.9106 11.3667 79.7383 11.3667 82.5435 11.4116C82.5211 12.0624 82.5211 12.7357 82.5435 13.3865C80.4788 13.4314 78.4142 13.2967 76.372 13.4538C76.4617 14.6657 76.3271 15.9 76.4393 17.1119C77.9429 17.0445 79.4465 17.1119 80.9501 17.067C80.9726 17.7178 80.9726 18.3686 80.9726 18.997C79.469 18.997 77.9653 19.0194 76.4617 18.9745C76.372 20.357 76.372 21.7438 76.4617 23.1263C78.4815 23.0814 80.5013 23.1263 82.5211 23.1263C82.5211 23.7771 82.5211 24.4279 82.5435 25.0788C79.7383 25.1461 76.9106 25.1236 74.1053 25.1012C74.1053 20.5455 74.1278 15.9898 74.1053 11.4116ZM85.5507 11.434C87.0319 11.3443 88.5131 11.3892 89.9942 11.3892C91.2959 11.434 92.7097 11.7482 93.6523 12.6908C94.7968 13.8578 95.0212 15.7429 94.3929 17.2241C93.944 18.3237 92.9117 19.1092 91.7896 19.4683C90.3757 19.9171 88.8497 19.7151 87.391 19.76V25.1012C86.785 25.0788 86.1791 25.0788 85.5507 25.0788C85.5732 20.523 85.5732 15.9748 85.5507 11.434ZM87.391 12.8254V18.3013C88.3111 18.3013 89.2312 18.3237 90.1513 18.2788C91.0714 18.234 92.1038 17.7627 92.5526 16.8874C93.181 15.7205 92.979 13.97 91.7223 13.2743C90.3757 12.5786 88.8272 12.9152 87.391 12.8254ZM97.0859 25.1461C96.9961 20.5679 97.0186 15.9673 97.0859 11.3667C97.6932 11.3519 98.3008 11.3819 98.9037 11.4565C98.8588 15.496 98.8813 19.5356 98.8813 23.5976C100.811 23.5751 102.719 23.62 104.649 23.5751C104.694 24.0913 104.671 24.6075 104.671 25.1461C102.135 25.1461 99.6218 25.1012 97.0859 25.1461ZM106.197 11.4116C106.802 11.3705 107.409 11.363 108.015 11.3892C108.038 14.1495 108.015 16.9323 108.015 19.7151C108.015 20.7699 108.329 21.8696 109.07 22.6101C109.721 23.2162 110.572 23.5624 111.461 23.5831C112.35 23.6038 113.216 23.2975 113.895 22.7224C114.725 21.9818 115.084 20.8148 115.062 19.7151V11.3667C115.668 11.3667 116.274 11.3892 116.88 11.3892C116.88 14.2393 116.902 17.0894 116.88 19.9395C116.857 21.7125 116.004 23.5078 114.456 24.4279C112.1 25.8418 108.554 25.3032 107.05 22.857C106.354 21.8022 106.152 20.5006 106.197 19.2663C106.197 16.6406 106.231 14.0373 106.197 11.4116ZM121.839 12.04C123.747 10.873 126.418 11.2321 128.056 12.7357C127.786 13.1621 127.562 14.2393 126.866 13.7904C125.744 12.9152 124.106 12.5337 122.804 13.2518C121.727 13.8353 121.458 15.5858 122.513 16.3264C124.084 17.4485 126.328 17.3587 127.652 18.8623C129.043 20.6352 128.258 23.5527 126.305 24.585C124.128 25.752 121.301 25.1685 119.595 23.4854C119.82 23.0365 119.999 22.453 120.493 22.296C121.031 22.4306 121.391 22.9019 121.862 23.1263C122.376 23.4298 122.954 23.6101 123.55 23.6529C124.145 23.6958 124.743 23.6 125.295 23.3732C126.35 22.9243 126.889 21.5778 126.507 20.5006C126.148 19.6029 125.161 19.2663 124.308 18.997C123.096 18.593 121.75 18.3013 120.897 17.3138C119.573 15.7429 120.066 13.0723 121.839 12.04Z" fill="white" stroke="white" stroke-width="0.09"/>
<path id="Vector_4" d="M87.3911 12.8257C88.8273 12.9155 90.3758 12.5789 91.7224 13.2746C92.9791 13.9703 93.1811 15.7207 92.5527 16.8877C92.1039 17.763 91.094 18.2118 90.1514 18.2791C89.2089 18.3465 88.3112 18.3016 87.3911 18.3016V12.8257ZM48.7909 13.7907C50.1598 13.3419 51.7981 13.4317 52.9875 14.3069C53.9974 15.025 54.5136 16.2818 54.6258 17.4937C54.7604 18.7504 54.6258 20.0745 53.975 21.1741C52.5387 23.6203 48.4542 23.6428 46.9282 21.2864C46.0754 19.9623 45.9856 18.2791 46.2998 16.7531C46.4253 16.0868 46.7205 15.4641 47.1569 14.9452C47.5932 14.4263 48.156 14.0287 48.7909 13.7907Z" fill="#EB0028" stroke="#EB0028" stroke-width="0.09"/>
</g>
</g>
</g>
<defs>
<clipPath id="clip0_319_16111">
<rect width="134.492" height="32" fill="white" transform="translate(0.753784)"/>
</clipPath>
</defs>
</svg>
