<svg width="158" height="24" viewBox="0 0 158 24" fill="none" xmlns="http://www.w3.org/2000/svg">
<g id="vendor-03-samsung 1" style="mix-blend-mode:luminosity" opacity="0.5" clip-path="url(#clip0_319_16119)">
<g id="&#208;&#161;&#208;&#187;&#208;&#190;&#208;&#185; 2">
<g id="Camada 1">
<g id="g907">
<path id="polygon16" d="M135.634 0.712402V22.8881H127.658L122.121 4.68855H122.002L122.309 22.8881H116.796V0.712402H125.119L130.269 18.306H130.393L130.086 0.712402H135.634Z" fill="black"/>
<path id="polygon18" d="M32.6564 23.1204L29.6711 2.78795H29.5455L26.4759 23.1204H20.4258L24.5801 0.712402H34.5475L38.6842 23.1204H32.6564Z" fill="black"/>
<path id="polygon20" d="M52.7916 0.712402L55.559 17.8416H55.6783L58.4473 0.712402H67.586L68.0711 23.1204H62.4711L62.3232 2.97403H62.2071L58.4616 23.1204H52.7757L49.027 2.97403H48.9061L48.7662 23.1204H43.1534L43.6481 0.712402H52.7916Z" fill="black"/>
<path id="path22" d="M10.9896 16.7984C11.2075 17.3423 11.1407 18.039 11.0389 18.4604C10.8512 19.2064 10.3455 19.9666 8.85522 19.9666C7.45085 19.9666 6.59836 19.1602 6.59836 17.9292V15.7614H0.583252V17.495C0.583252 22.4907 4.51645 23.9984 8.73116 23.9984C12.7836 23.9984 16.122 22.6115 16.6532 18.8787C16.9252 16.9431 16.7232 15.6755 16.6294 15.1968C15.6926 10.5082 7.17888 9.10855 6.54588 6.48429C6.45843 6.09602 6.45031 5.69408 6.52202 5.30259C6.68107 4.58847 7.16774 3.7996 8.56894 3.7996C9.87947 3.7996 10.6524 4.60915 10.6524 5.8338V7.2175H16.2413V5.64294C16.2413 0.761829 11.8596 0 8.69458 0C4.70095 0 1.4421 1.3169 0.847268 4.96541C0.666179 5.96631 0.683472 6.99304 0.898162 7.98728C1.87629 12.5662 9.83653 13.8926 10.988 16.792L10.9896 16.7984Z" fill="black"/>
<path id="path24" d="M83.8564 16.7586C84.0775 17.2962 84.0059 17.9753 83.9057 18.3968C83.7228 19.1395 83.2234 19.887 81.7427 19.887C80.3558 19.887 79.5161 19.0823 79.5161 17.8799V15.7296H73.5678L73.5598 17.4425C73.5598 22.3872 77.458 23.8807 81.6298 23.8807C85.6393 23.8807 88.9459 22.5129 89.4692 18.8135C89.7395 16.8922 89.5471 15.6421 89.4501 15.1729C88.5085 10.524 80.0886 9.13874 79.4636 6.54152C79.3757 6.16078 79.3681 5.76591 79.4413 5.38208C79.6004 4.6616 80.0775 3.89341 81.4707 3.89341C82.7686 3.89341 83.5256 4.68864 83.5256 5.89738V7.26677H89.0715V5.70971C89.062 0.881082 84.7185 0.124023 81.5725 0.124023C77.6314 0.124023 74.4012 1.43138 73.8175 5.0449C73.6393 6.0365 73.6572 7.05339 73.87 8.03814C74.8338 12.5694 82.7161 13.8863 83.8564 16.7586Z" fill="black"/>
<path id="path26" d="M102.679 19.7679C104.233 19.7679 104.72 18.6928 104.827 18.1425C104.871 17.859 104.888 17.572 104.879 17.2852V0.703125H110.546V16.7779C110.559 17.1898 110.517 18.0375 110.498 18.2491C110.101 22.4335 106.794 23.7902 102.676 23.7902C98.5586 23.7902 95.2457 22.4335 94.8528 18.2491C94.8337 18.0375 94.7924 17.1898 94.8051 16.7779V0.703125H100.464V17.2852C100.459 17.5719 100.476 17.8586 100.516 18.1425C100.641 18.6928 101.113 19.7679 102.679 19.7679Z" fill="black"/>
<path id="path28" d="M149.426 19.5326C151.05 19.5326 151.616 18.5067 151.721 17.9087C151.76 17.6263 151.776 17.3412 151.77 17.0562V13.8037H149.471V10.5322H157.423V16.5409C157.423 16.9592 157.409 17.2693 157.342 18.0169C156.962 22.1075 153.426 23.5548 149.45 23.5548C145.474 23.5548 141.94 22.0996 141.561 18.0232C141.496 17.2757 141.487 16.9656 141.48 16.5473V7.10949C141.48 6.71188 141.53 6.00731 141.572 5.63355C142.08 1.44588 145.474 0.097168 149.45 0.097168C153.426 0.097168 156.908 1.43156 157.32 5.63355C157.364 6.12417 157.381 6.61697 157.369 7.10949V7.8586H151.718V6.60373C151.717 6.31802 151.693 6.03286 151.645 5.75124C151.549 5.25502 151.118 4.11784 149.418 4.11784C147.785 4.11784 147.306 5.19299 147.192 5.75124C147.122 6.09884 147.09 6.45289 147.096 6.80731V17.0562C147.09 17.3415 147.109 17.6268 147.153 17.9087C147.25 18.5083 147.815 19.5326 149.437 19.5326H149.426Z" fill="black"/>
</g>
</g>
</g>
</g>
<defs>
<clipPath id="clip0_319_16119">
<rect width="156.833" height="24" fill="white" transform="translate(0.583252)"/>
</clipPath>
</defs>
</svg>
