<svg width="132" height="32" viewBox="0 0 132 32" fill="none" xmlns="http://www.w3.org/2000/svg">
<g id="vendor-07-realme 1" style="mix-blend-mode:luminosity" opacity="0.5" clip-path="url(#clip0_319_16132)">
<g id="&#208;&#161;&#208;&#187;&#208;&#190;&#208;&#185; 2">
<g id="&#208;&#161;&#208;&#187;&#208;&#190;&#208;&#185; 1">
<path id="Vector" d="M49.3114 31.9675C46.5489 31.6476 44.3178 30.6283 42.534 28.8661C40.3165 26.6974 39.1399 23.7533 39.1399 20.3972C39.1399 13.6523 43.9952 8.70756 50.6045 8.7184C52.3442 8.72229 54.0598 9.12477 55.6197 9.89495C56.3975 10.2865 57.1256 10.7698 57.7885 11.3345C57.9049 11.4501 58.032 11.5545 58.168 11.6462C58.208 11.2246 58.2216 10.8008 58.2087 10.3775V9.10878H61.0714V31.6855H58.1924V29.0722L57.9213 29.2891C56.0047 30.8804 54.2561 31.6557 51.941 31.9431C51.0632 32.0093 50.1821 32.0174 49.3032 31.9675H49.3114ZM51.9518 28.9854C55.411 28.4053 57.8102 25.96 58.496 22.3165C58.6528 21.0563 58.6528 19.7814 58.496 18.5212C58.3475 17.636 58.0699 16.7774 57.6719 15.9729C56.4818 13.533 54.3808 12.0746 51.5858 11.7059C50.4804 11.586 49.3626 11.651 48.2785 11.8983C46.9495 12.2403 45.7285 12.9123 44.7285 13.8521C43.7286 14.7919 42.9821 15.9689 42.5584 17.2741C42.1653 18.4073 42.0867 18.9332 42.0867 20.3972C42.0867 21.5222 42.1084 21.7906 42.2385 22.3761C43.022 25.8787 45.535 28.3755 48.8803 28.9827C49.8994 29.1088 50.9301 29.1088 51.9491 28.9827L51.9518 28.9854ZM24.3436 31.878C22.4909 31.6993 20.7093 31.0732 19.1521 30.0535C18.0985 29.2832 17.1727 28.3519 16.4086 27.2938C15.0016 25.1711 14.3239 22.6255 14.4242 19.8116C14.4635 17.4091 15.2249 15.0741 16.6092 13.1101C16.9621 12.6505 17.3452 12.2149 17.756 11.8062C19.2781 10.2709 21.2334 9.2379 23.3595 8.84581C24.6279 8.65437 25.9143 8.6107 27.1928 8.71569C31.4869 9.25788 34.7021 12.1315 35.8081 16.4175C36.0817 17.4682 36.2318 18.5472 36.2555 19.6327L36.2961 20.755H17.3195L17.3575 21.4165C17.4409 22.8591 17.8979 24.2552 18.6835 25.468C19.469 26.6809 20.5563 27.6687 21.8386 28.3348C23.0217 28.9416 24.3372 29.2444 25.6665 29.2159C28.1633 29.2159 30.0501 28.4487 31.6306 26.776C32.1605 26.1764 32.6393 25.5334 33.062 24.8539C33.0809 24.8133 35.5587 26.4371 35.5587 26.4805C35.5587 26.6377 34.5448 27.9878 33.9837 28.5734C31.9152 30.7421 29.3507 31.8102 26.0271 31.8888C25.4198 31.9051 24.6716 31.8889 24.3517 31.8563L24.3436 31.878ZM33.3059 17.941C32.7638 14.5496 30.4513 12.0908 27.1901 11.4348C26.1417 11.3024 25.0802 11.3124 24.0345 11.4646C22.4711 11.7774 21.0294 12.5298 19.8786 13.6333C18.6497 14.832 17.8011 16.3661 17.4388 18.0441L17.3954 18.223H33.3493L33.3059 17.941ZM119.384 31.8726C114.398 31.409 110.709 28.0312 109.695 23.0322C109.015 19.63 109.646 16.084 111.403 13.4598C113.087 10.9495 115.482 9.39704 118.587 8.80244C120.019 8.63568 121.465 8.63568 122.897 8.80244C124.871 9.17101 126.686 10.1284 128.105 11.5486C130.16 13.5981 131.258 16.4961 131.258 19.8739V20.755L121.807 20.7713L112.357 20.7875L112.373 21.308C112.484 23.4488 113.398 25.4691 114.933 26.9658C116.106 28.1052 117.598 28.8615 119.21 29.1345C120.233 29.266 121.268 29.266 122.29 29.1345C124.602 28.7252 126.278 27.5893 127.712 25.4558C127.828 25.256 127.971 25.0734 128.138 24.9136C128.216 24.9353 130.431 26.3612 130.526 26.4507C130.621 26.5402 130.016 27.4673 129.303 28.2968C127.023 30.9482 123.396 32.2603 119.387 31.8861L119.384 31.8726ZM128.33 18.0468C128.306 17.8089 128.263 17.5732 128.203 17.3419C127.422 14.0888 125.118 11.92 121.921 11.4158C120.611 11.2375 119.276 11.3561 118.018 11.7628C116.697 12.2018 115.508 12.9648 114.558 13.9821C113.609 14.9993 112.929 16.2384 112.582 17.5859C112.512 17.857 112.455 18.1281 112.455 18.1552C112.455 18.1823 114.737 18.2257 120.392 18.2257H128.33V18.0468ZM0.742065 20.3646V9.04371H14.2751V11.7113L8.95623 11.7275L3.63736 11.7438L3.62109 21.7147L3.60482 31.6855H0.742065V20.3646ZM66.0759 15.8102V0H69.0037V31.6205H66.0759V15.8102ZM74.0027 20.3321V9.04371H76.8654V12.0041L77.1067 11.7113C77.7949 10.8345 78.6629 10.1154 79.6523 9.60217C80.7236 9.05798 81.9046 8.76414 83.106 8.7428C84.5284 8.6359 85.9538 8.90713 87.2375 9.52897C88.5767 10.1823 89.5337 11.1149 90.4364 12.6601C90.4988 12.7658 90.5367 12.736 90.7699 12.389C92.026 10.5674 93.9499 9.31465 96.124 8.90274C97.3804 8.7038 98.6592 8.69101 99.9193 8.86479C101.405 9.12441 102.775 9.83196 103.847 10.8926C104.962 12.0068 105.648 13.3514 106.07 15.2464L106.244 16.0352L106.266 23.8265L106.287 31.6178H103.411V24.6696C103.411 20.3321 103.387 17.4612 103.343 17.041C103.072 14.368 101.692 12.4324 99.5316 11.7194C98.6841 11.44 97.786 11.3475 96.8993 11.4483C94.1125 11.7519 92.3097 13.2592 91.6807 15.8157C91.5479 16.3578 91.5452 16.5178 91.5235 23.9973L91.4991 31.6259H88.6418V24.797C88.6418 20.7306 88.6147 17.6455 88.5767 17.1549C88.3056 13.8773 86.5083 11.798 83.6319 11.4483C81.0077 11.1284 78.286 12.6601 77.2965 15.0132C76.8817 15.9946 76.9061 15.4849 76.8817 23.9268L76.86 31.6205H74.0027V20.3321Z" fill="#676C73"/>
</g>
</g>
</g>
<defs>
<clipPath id="clip0_319_16132">
<rect width="130.516" height="32" fill="white" transform="translate(0.742065)"/>
</clipPath>
</defs>
</svg>
